<svg width="1em" viewBox="0 0 28 28" fill="none" xmlns="http://www.w3.org/2000/svg">
<circle cx="13.9804" cy="13.975" r="13.4875" fill="#EE7623"/>
<g clip-path="url(#clip0_9_94)">
<path d="M19.0619 8.05085C17.567 6.55599 15.5794 5.7327 13.4653 5.7327C11.3516 5.7327 9.36392 6.55599 7.86906 8.05085C6.3742 9.54572 5.5509 11.5334 5.5509 13.6471C5.5509 15.7612 6.3742 17.7488 7.86906 19.2437C9.36392 20.7386 11.3516 21.5619 13.4653 21.5619C14.5074 21.5619 15.519 21.3616 16.4557 20.9795L15.9696 19.1643C15.206 19.5124 14.3578 19.7063 13.4653 19.7063C10.1247 19.7063 7.40648 16.9881 7.40648 13.6471C7.40648 10.3065 10.1247 7.58828 13.4653 7.58828C16.8063 7.58828 19.5245 10.3065 19.5245 13.6471C19.5245 15.0524 19.0433 16.3478 18.2376 17.3769L20.1504 17.8893C20.9512 16.633 21.3801 15.1729 21.3801 13.6471C21.3801 11.5334 20.5568 9.54572 19.0619 8.05085Z" fill="white"/>
<path d="M13.4652 8.64199C10.7055 8.64199 8.46008 10.8874 8.46008 13.6471C8.46008 16.4071 10.7055 18.6526 13.4652 18.6526C14.2646 18.6526 15.0212 18.4643 15.692 18.1296L15.2779 16.5838L17.0408 17.0562L17.1096 17.0745C17.9533 16.1785 18.4707 14.972 18.4707 13.6471C18.4707 10.8874 16.2252 8.64199 13.4652 8.64199ZM15.3123 15.3513C15.2017 15.5554 15.0556 15.7197 14.874 15.8451C14.6921 15.9705 14.4834 16.0615 14.2474 16.1177C14.1466 16.1419 14.0444 16.1609 13.9408 16.1742V17.4594H12.8871V16.1521C12.6999 16.123 12.5176 16.0819 12.3388 16.0292C12.1474 15.973 11.9619 15.9052 11.7824 15.8265C11.6033 15.7482 11.4375 15.6572 11.2851 15.554L11.8158 14.5003C11.8355 14.5248 11.8994 14.5716 12.0072 14.6404C12.1154 14.7092 12.2492 14.7777 12.409 14.8466C12.5685 14.9154 12.7466 14.9769 12.9433 15.031C13.1396 15.0851 13.3388 15.1118 13.54 15.1118C13.9675 15.1118 14.1814 14.9818 14.1814 14.7212C14.1814 14.6232 14.1491 14.5421 14.0855 14.4781C14.0216 14.4142 13.933 14.3566 13.8203 14.305C13.7072 14.2533 13.5734 14.2056 13.4185 14.1613C13.2636 14.1171 13.0953 14.0679 12.9138 14.0138C12.6728 13.94 12.4642 13.8603 12.2875 13.7743C12.1105 13.6886 11.9644 13.5892 11.8488 13.4761C11.7333 13.363 11.6476 13.2326 11.591 13.0855C11.5345 12.938 11.5064 12.7662 11.5064 12.5695C11.5064 12.2945 11.558 12.0511 11.6609 11.84C11.7642 11.6289 11.9043 11.4508 12.081 11.3058C12.258 11.1607 12.4628 11.0515 12.6963 10.9777C12.7589 10.958 12.8224 10.9408 12.8871 10.9264V9.74136H13.9408V10.9127C13.952 10.9145 13.9636 10.9166 13.9748 10.9187C14.1519 10.9531 14.3212 10.9974 14.4834 11.0515C14.6454 11.1056 14.7967 11.167 14.9365 11.2355C15.0767 11.3047 15.2056 11.3732 15.3236 11.442L14.7929 12.4441C14.7781 12.4248 14.7265 12.3879 14.638 12.3338C14.5498 12.2797 14.4392 12.2232 14.3064 12.1642C14.174 12.1052 14.0289 12.0535 13.8716 12.0096C13.7146 11.9654 13.5572 11.9433 13.4002 11.9433C12.9678 11.9433 12.7515 12.088 12.7515 12.3781C12.7515 12.4662 12.775 12.54 12.8217 12.599C12.8681 12.658 12.9369 12.7107 13.0279 12.7574C13.1189 12.8041 13.233 12.847 13.3707 12.8863C13.508 12.9257 13.6679 12.9699 13.8495 13.0191C14.1002 13.0879 14.3261 13.1628 14.5277 13.2439C14.7289 13.325 14.8996 13.4255 15.0398 13.5459C15.1796 13.6664 15.2878 13.8125 15.364 13.9843C15.4402 14.1564 15.4781 14.3629 15.4781 14.6035C15.4781 14.8982 15.423 15.1476 15.3123 15.3513Z" fill="white"/>
<path d="M20.6298 20.4108L21.6568 19.3838L16.7683 18.0741L18.0781 22.9626L19.1051 21.9356L20.8855 23.716L22.4102 22.1913L20.6298 20.4108Z" fill="white"/>
</g>
<defs>
<clipPath id="clip0_9_94">
<rect width="17.9833" height="17.9833" fill="white" transform="translate(4.98889 5.73268)"/>
</clipPath>
</defs>
</svg>
